<?xml version="1.0" ?><!DOCTYPE svg  PUBLIC '-//W3C//DTD SVG 1.1//EN'  'http://www.w3.org/Graphics/SVG/1.1/DTD/svg11.dtd'><svg height="512px" style="enable-background:new 0 0 512 512;" version="1.1" viewBox="0 0 512 512" width="512px" xml:space="preserve" xmlns="http://www.w3.org/2000/svg" xmlns:xlink="http://www.w3.org/1999/xlink"><g id="形状_3_5_" style="enable-background:new    ;"><g id="形状_3"><g><path d="M273.362,229.762c11.872,1.554,19.484-11.113,21.007-20.713     c1.556-9.588-6.118-20.738-14.506-22.653c-8.428-1.937-18.943,11.552-19.893,20.351C258.816,217.51,261.5,228.24,273.362,229.762     z M205.267,260.49c16.072-3.452,13.879-22.681,13.407-26.883c-0.792-6.48-8.409-17.797-18.746-16.893     c-13.014,1.158-14.914,19.956-14.914,19.956C183.253,245.375,189.221,263.952,205.267,260.49z M235.112,228.258     c8.872,0,16.043-10.225,16.043-22.854c0-12.631-7.171-22.839-16.043-22.839c-8.877,0-16.066,10.208-16.066,22.839     C219.046,218.033,226.235,228.258,235.112,228.258z M222.335,293.906c-0.463,1.357-1.523,4.81-0.601,7.803     c1.784,6.748,7.647,7.057,7.647,7.057h8.415v-20.572h-9.008C224.729,289.402,222.761,292.546,222.335,293.906z M320.394,245.889     c0-4.592-3.802-18.431-17.96-18.431c-14.183,0-16.062,13.062-16.062,22.289c0,8.81,0.737,21.093,18.348,20.712     C322.321,270.067,320.394,250.513,320.394,245.889z M302.434,286.194c0,0-18.356-14.198-29.071-29.556     c-14.546-22.642-35.192-13.419-42.094-1.923c-6.881,11.526-17.577,18.805-19.107,20.737c-1.545,1.894-22.174,13.04-17.597,33.389     c4.587,20.338,20.673,19.955,20.673,19.955s11.855,1.156,25.604-1.916c13.777-3.066,25.633,0.755,25.633,0.755     s32.14,10.778,40.923-9.96C316.193,296.956,302.434,286.194,302.434,286.194z M247.419,317.053h-20.89     c-9.028-1.803-12.625-7.964-13.075-9.021c-0.445-1.06-3.003-6.021-1.645-14.438c3.895-12.611,15.021-13.535,15.021-13.535h11.132     v-13.661l9.456,0.147V317.053z M286.348,316.91h-24.039c-9.332-2.407-9.768-9.03-9.768-9.03v-26.595l9.768-0.155v23.896     c0.594,2.548,3.759,3.006,3.759,3.006h9.905v-26.747h10.375V316.91z" style="fill-rule:evenodd;clip-rule:evenodd;fill:#0062B2;"/></g></g></g><g id="形状_3_4_" style="enable-background:new    ;"><g id="形状_3_1_"><g><path d="M162.709,250.543v14.2h16.121v-14.2H162.709z      M162.709,326.64h16.121v-55.709h-16.121V326.64z M136.5,270.979l-34.392-0.09v11.712h30.157c0,0,7.177,1.771,7.177,6.325v4.125     h-27.29c0,0-10.731,0.988-14.178,13.812c-0.593,6.003,0.196,8.953,0.602,10.047c0.387,1.088,3.532,8.164,12.89,9.936h43.453     v-39.906C154.918,286.939,152.849,273.247,136.5,270.979z M139.442,315.816H117.48c-2.951-1.19-3.935-3.156-4.141-3.648     c-0.203-0.486-0.887-2.248-0.091-4.034c1.778-3.441,4.723-4.233,4.723-4.233h21.471V315.816z M82.736,288.846     c10.3-5.388,8.992-18.966,8.992-18.966c-1.116-20.783-26.508-19.813-26.508-19.813H25.986v77.449h44.301     c26.016-0.104,24.142-20.418,24.142-20.418C94.906,293.533,82.736,288.846,82.736,288.846z M42.858,265.167h25.54     c0,0,5.549-0.257,7.386,4.151c0,0,1.104,4.685-0.759,7.893c0,0-1.784,3.278-6.515,3.983H42.858V265.167z M75.784,309.464     c0,0-1.672,2.918-6.387,3.655v0.035H42.858v-16.711h26.408l0.894,0.181c0,0,5.024,0.92,6.845,5.438     C77.005,302.062,78.058,306.307,75.784,309.464z" style="fill-rule:evenodd;clip-rule:evenodd;fill:#E60012;"/></g></g></g><g id="形状_3_3_" style="enable-background:new    ;"><g id="形状_3_2_"><g><path d="M326.938,263.99h31.745l-2.974,6.805h-26.997v56.262h64.138     c6.707,0,6.114-6.771,6.114-6.771v-49.491h-27.041l2.376-6.969h26.587v-11.213h-73.854L326.938,263.99z M386.544,315.041     c0,0-0.777,1.869-1.877,1.869h-42.563v-13.123h44.44V315.041z M386.472,280.647v12.303H342.1v-12.303H386.472z M477.459,268.29     v-4.3h-11.682v4.3h-24.028v-4.147h-11.068v4.147h-7.479l0.147,8.414h7.331v15.809h40.424c5.609,0,6.354-5.915,6.354-5.915v-9.894     h8.555v-8.414H477.459z M465.777,282.456c0,0-1.04,1.916-2.371,1.916h-21.789v-7.832h24.16V282.456z M485.271,252.912h-28.973     v-5.676h-13.589v5.396H409.47v74.307h11.954v-64.722h63.847V252.912z M424.834,304.038l18.606,10.793     c-1.473,1.622-7.83,3.678-7.83,3.678h-12.408v8.297h16.844c5.026-1.031,14.33-5.76,14.33-5.76     c3.852,3.536,11.25,5.009,11.25,5.009h19.199v-8.275h-14.475c-3.898-0.583-7.404-2.805-7.404-2.805l21.879-12.563v-6.805h-59.991     V304.038z M463.552,303.9l-10.642,5.612l-9.756-5.612H463.552z" style="fill-rule:evenodd;clip-rule:evenodd;fill:#E60012;"/></g></g></g></svg>